<svg width="27" height="25" viewBox="0 0 27 25" fill="none" xmlns="http://www.w3.org/2000/svg">
<g id="Forma 1 copy">
<g id="Forma 1 copy_2">
<path id="Vector" d="M21.8486 23.1451H21.7362C21.1271 23.1451 20.6153 22.6455 20.5711 22.0078C20.5267 21.3391 21.0151 20.757 21.6602 20.713C21.6856 20.7113 21.7121 20.7104 21.7382 20.7104C22.3552 20.7104 22.8719 21.2003 22.9178 21.8271C22.9296 22.0756 22.889 22.4298 22.6336 22.7223L22.6277 22.7291L22.6219 22.736C22.4252 22.9696 22.1584 23.1105 21.8486 23.1451ZM8.11652 23.1388C7.46594 23.1388 6.93671 22.5958 6.93671 21.9285C6.93671 21.2616 7.46594 20.719 8.11652 20.719C8.76709 20.719 9.29633 21.2616 9.29633 21.9285C9.29633 22.5958 8.76709 23.1388 8.11652 23.1388Z" fill="white"/>
<path id="Vector_2" d="M21.7729 22.1451C21.818 22.1338 21.8393 22.1128 21.857 22.0918C21.8647 22.0826 21.8726 22.0735 21.8804 22.0645C21.9169 22.0227 21.9202 21.9342 21.9194 21.8894C21.9062 21.7833 21.8154 21.7104 21.7382 21.7104C21.7344 21.7104 21.7306 21.7106 21.7282 21.7107C21.6501 21.7161 21.5623 21.8198 21.5689 21.9414C21.5782 22.0582 21.6644 22.1451 21.7362 22.1451H21.7729ZM8.11652 22.1388C8.2157 22.1388 8.29633 22.0444 8.29633 21.9285C8.29633 21.813 8.2157 21.719 8.11652 21.719C8.0174 21.719 7.93671 21.813 7.93671 21.9285C7.93671 22.0444 8.0174 22.1388 8.11652 22.1388ZM21.8964 24.1451C21.8487 24.1451 21.7848 24.1451 21.7362 24.1451C20.5986 24.1451 19.6536 23.2334 19.5735 22.0769C19.4934 20.8718 20.3907 19.7972 21.5922 19.7153C21.6411 19.712 21.6898 19.7104 21.7382 19.7104C22.8769 19.7104 23.8383 20.6113 23.916 21.7673C23.9475 22.3704 23.7711 22.9401 23.3868 23.3801C23.0025 23.8364 22.4733 24.0966 21.8964 24.1451ZM8.11652 24.1388C6.91229 24.1388 5.93671 23.1498 5.93671 21.9285C5.93671 20.708 6.91229 19.719 8.11652 19.719C9.32068 19.719 10.2963 20.708 10.2963 21.9285C10.2963 23.1498 9.32068 24.1388 8.11652 24.1388ZM21.0954 17.2727H9.03003C8.59711 17.2727 8.21283 16.9794 8.10028 16.5564L4.1745 2.12659H1.4187C0.890381 2.12659 0.45752 1.6875 0.45752 1.14929C0.45752 0.611938 0.890381 0.171875 1.4187 0.171875H4.8963C5.32831 0.171875 5.71259 0.46521 5.82507 0.88916L9.75092 15.318H20.4546L24.0114 7.0127H12.1548C11.6256 7.0127 11.1927 6.57263 11.1927 6.0354C11.1927 5.49805 11.6256 5.05798 12.1548 5.05798H25.4856C25.806 5.05798 26.1111 5.22083 26.2866 5.49805C26.463 5.77429 26.4954 6.11633 26.3667 6.4259L21.9765 16.6859C21.8163 17.0442 21.4797 17.2727 21.0954 17.2727Z" fill="white"/>
</g>
<g id="Stroke Effect">
<path id="Vector_3" d="M21.7729 22.1451C21.818 22.1338 21.8393 22.1128 21.857 22.0918C21.8647 22.0826 21.8726 22.0735 21.8804 22.0645C21.9169 22.0227 21.9202 21.9342 21.9194 21.8894C21.9062 21.7833 21.8154 21.7104 21.7382 21.7104C21.7344 21.7104 21.7306 21.7106 21.7282 21.7107C21.6501 21.7161 21.5623 21.8198 21.5689 21.9414C21.5782 22.0582 21.6644 22.1451 21.7362 22.1451H21.7729ZM8.11652 22.1388C8.2157 22.1388 8.29633 22.0444 8.29633 21.9285C8.29633 21.813 8.2157 21.719 8.11652 21.719C8.0174 21.719 7.93671 21.813 7.93671 21.9285C7.93671 22.0444 8.0174 22.1388 8.11652 22.1388ZM21.8964 24.1451C21.8487 24.1451 21.7848 24.1451 21.7362 24.1451C20.5986 24.1451 19.6536 23.2334 19.5735 22.0769C19.4934 20.8718 20.3907 19.7972 21.5922 19.7153C21.6411 19.712 21.6898 19.7104 21.7382 19.7104C22.8769 19.7104 23.8383 20.6113 23.916 21.7673C23.9475 22.3704 23.7711 22.9401 23.3868 23.3801C23.0025 23.8364 22.4733 24.0966 21.8964 24.1451ZM8.11652 24.1388C6.91229 24.1388 5.93671 23.1498 5.93671 21.9285C5.93671 20.708 6.91229 19.719 8.11652 19.719C9.32068 19.719 10.2963 20.708 10.2963 21.9285C10.2963 23.1498 9.32068 24.1388 8.11652 24.1388ZM21.0954 17.2727H9.03003C8.59711 17.2727 8.21283 16.9794 8.10028 16.5564L4.1745 2.12659H1.4187C0.890381 2.12659 0.45752 1.6875 0.45752 1.14929C0.45752 0.611938 0.890381 0.171875 1.4187 0.171875H4.8963C5.32831 0.171875 5.71259 0.46521 5.82507 0.88916L9.75092 15.318H20.4546L24.0114 7.0127H12.1548C11.6256 7.0127 11.1927 6.57263 11.1927 6.0354C11.1927 5.49805 11.6256 5.05798 12.1548 5.05798H25.4856C25.806 5.05798 26.1111 5.22083 26.2866 5.49805C26.463 5.77429 26.4954 6.11633 26.3667 6.4259L21.9765 16.6859C21.8163 17.0442 21.4797 17.2727 21.0954 17.2727Z" fill="white"/>
</g>
</g>
</svg>
